<svg width="187" height="187" viewBox="0 0 187 187" fill="none" xmlns="http://www.w3.org/2000/svg">
<path d="M108.896 93.1452C108.896 93.4007 108.889 93.6568 108.877 93.9118C108.864 94.1674 108.846 94.4224 108.82 94.677C108.796 94.9316 108.764 95.1857 108.727 95.4383C108.689 95.6914 108.646 95.9436 108.595 96.1942C108.545 96.4454 108.49 96.6946 108.427 96.9429C108.365 97.1912 108.297 97.4375 108.223 97.6823C108.149 97.9272 108.068 98.1696 107.982 98.4106C107.896 98.6516 107.804 98.8901 107.706 99.1262C107.608 99.3628 107.505 99.5965 107.395 99.8277C107.286 100.059 107.171 100.287 107.051 100.513C106.93 100.739 106.804 100.961 106.673 101.18C106.541 101.4 106.404 101.616 106.262 101.828C106.12 102.041 105.973 102.25 105.82 102.456C105.668 102.661 105.511 102.863 105.349 103.06C105.186 103.258 105.019 103.452 104.848 103.641C104.676 103.831 104.5 104.016 104.319 104.197C104.138 104.378 103.953 104.554 103.763 104.726C103.574 104.898 103.38 105.065 103.183 105.227C102.985 105.389 102.784 105.546 102.578 105.699C102.373 105.852 102.164 105.999 101.951 106.141C101.739 106.283 101.522 106.419 101.303 106.551C101.084 106.683 100.861 106.809 100.636 106.929C100.41 107.05 100.182 107.165 99.9507 107.274C99.7194 107.384 99.4857 107.487 99.2496 107.585C99.013 107.683 98.7745 107.775 98.534 107.861C98.293 107.947 98.0501 108.028 97.8057 108.102C97.5609 108.176 97.3146 108.244 97.0663 108.306C96.818 108.369 96.5688 108.424 96.3181 108.474C96.067 108.525 95.8153 108.568 95.5622 108.606C95.3095 108.643 95.0555 108.675 94.8009 108.699C94.5468 108.725 94.2917 108.744 94.0362 108.756C93.7806 108.768 93.5251 108.775 93.2696 108.775C93.0135 108.775 92.758 108.768 92.5029 108.756C92.2474 108.744 91.9923 108.725 91.7377 108.699C91.4832 108.675 91.2296 108.643 90.9765 108.606C90.7238 108.568 90.4717 108.525 90.221 108.474C89.9703 108.424 89.7206 108.369 89.4728 108.306C89.2246 108.244 88.9782 108.176 88.7334 108.102C88.4885 108.028 88.2461 107.947 88.0051 107.861C87.7642 107.775 87.5256 107.683 87.2895 107.585C87.0534 107.487 86.8197 107.384 86.5885 107.274C86.3572 107.165 86.1289 107.05 85.9034 106.929C85.678 106.809 85.4555 106.683 85.2359 106.551C85.0168 106.419 84.8006 106.283 84.5878 106.141C84.3755 105.999 84.1661 105.852 83.9611 105.699C83.7556 105.546 83.554 105.389 83.3562 105.227C83.1585 105.065 82.9652 104.898 82.7757 104.726C82.5862 104.554 82.4011 104.378 82.2199 104.197C82.0392 104.016 81.8628 103.831 81.6913 103.641C81.5193 103.452 81.3527 103.258 81.1904 103.06C81.0282 102.863 80.8708 102.661 80.7182 102.456C80.5661 102.25 80.4189 102.041 80.2766 101.828C80.1347 101.616 79.9977 101.4 79.8665 101.18C79.7349 100.961 79.6091 100.739 79.4886 100.513C79.3676 100.287 79.2529 100.059 79.1436 99.8277C79.0343 99.5965 78.9304 99.3628 78.8327 99.1262C78.7351 98.8901 78.6427 98.6516 78.5568 98.4106C78.4703 98.1696 78.3901 97.9272 78.3163 97.6823C78.2419 97.4375 78.1734 97.1912 78.1117 96.9429C78.0496 96.6946 77.9932 96.4454 77.9436 96.1942C77.8936 95.9436 77.8499 95.6914 77.8125 95.4383C77.7751 95.1857 77.7435 94.9316 77.7187 94.677C77.6934 94.4224 77.6745 94.1674 77.6619 93.9118C77.6497 93.6568 77.6434 93.4007 77.6434 93.1452C77.6434 92.8892 77.6497 92.6336 77.6619 92.3781C77.6745 92.1225 77.6934 91.8679 77.7187 91.6134C77.7435 91.3588 77.7751 91.1047 77.8125 90.8516C77.8499 90.599 77.8936 90.3468 77.9436 90.0961C77.9932 89.845 78.0496 89.5957 78.1117 89.3475C78.1734 89.0992 78.2419 88.8529 78.3163 88.608C78.3901 88.3632 78.4703 88.1203 78.5568 87.8798C78.6427 87.6388 78.7351 87.4003 78.8327 87.1637C78.9304 86.9276 79.0343 86.6939 79.1436 86.4626C79.2529 86.2314 79.3676 86.003 79.4886 85.7771C79.6091 85.5517 79.7349 85.3292 79.8665 85.1096C79.9977 84.8905 80.1347 84.6743 80.2766 84.4615C80.4189 84.2492 80.5661 84.0398 80.7182 83.8343C80.8708 83.6293 81.0282 83.4277 81.1904 83.2299C81.3527 83.0322 81.5193 82.8384 81.6913 82.6489C81.8628 82.4594 82.0392 82.2743 82.2199 82.0931C82.4011 81.9124 82.5862 81.736 82.7757 81.5645C82.9652 81.3925 83.1585 81.2254 83.3562 81.0631C83.554 80.9009 83.7556 80.7435 83.9611 80.5914C84.1661 80.4388 84.3755 80.2916 84.5878 80.1493C84.8006 80.0074 85.0168 79.8704 85.2359 79.7393C85.4555 79.6076 85.678 79.4818 85.9034 79.3608C86.1289 79.2403 86.3572 79.1252 86.5885 79.0159C86.8197 78.9065 87.0534 78.8031 87.2895 78.7049C87.5256 78.6073 87.7642 78.5155 88.0051 78.429C88.2461 78.343 88.4885 78.2628 88.7334 78.1885C88.9782 78.1142 89.2246 78.0461 89.4728 77.984C89.7206 77.9218 89.9703 77.8654 90.221 77.8159C90.4717 77.7658 90.7238 77.7221 90.9765 77.6847C91.2296 77.6473 91.4832 77.6157 91.7377 77.5904C91.9923 77.5657 92.2474 77.5467 92.5029 77.5341C92.758 77.5215 93.0135 77.5156 93.2696 77.5156C93.5251 77.5156 93.7806 77.5215 94.0362 77.5341C94.2917 77.5467 94.5468 77.5657 94.8009 77.5904C95.0555 77.6157 95.3095 77.6473 95.5622 77.6847C95.8153 77.7221 96.067 77.7658 96.3181 77.8159C96.5688 77.8654 96.818 77.9218 97.0663 77.984C97.3146 78.0461 97.5609 78.1142 97.8057 78.1885C98.0501 78.2628 98.293 78.343 98.534 78.429C98.7745 78.5155 99.013 78.6073 99.2496 78.7049C99.4857 78.8031 99.7194 78.9065 99.9507 79.0159C100.182 79.1252 100.41 79.2403 100.636 79.3608C100.861 79.4813 101.084 79.6076 101.303 79.7393C101.522 79.8704 101.739 80.0074 101.951 80.1493C102.164 80.2916 102.373 80.4388 102.578 80.5914C102.784 80.7435 102.985 80.9009 103.183 81.0631C103.38 81.2254 103.574 81.3925 103.763 81.564C103.953 81.736 104.138 81.9124 104.319 82.0931C104.5 82.2743 104.676 82.4594 104.848 82.6489C105.019 82.8384 105.186 83.0322 105.349 83.2299C105.511 83.4277 105.668 83.6293 105.82 83.8343C105.973 84.0398 106.12 84.2492 106.262 84.4615C106.404 84.6743 106.541 84.8905 106.673 85.1101C106.804 85.3292 106.93 85.5517 107.051 85.7771C107.171 86.003 107.286 86.2314 107.395 86.4626C107.505 86.6939 107.608 86.9276 107.706 87.1637C107.804 87.4003 107.896 87.6388 107.982 87.8798C108.068 88.1203 108.149 88.3632 108.223 88.608C108.297 88.8529 108.365 89.0992 108.427 89.3475C108.49 89.5957 108.545 89.845 108.595 90.0961C108.646 90.3468 108.689 90.599 108.727 90.8516C108.764 91.1047 108.796 91.3588 108.82 91.6134C108.846 91.8679 108.864 92.1225 108.877 92.3781C108.889 92.6336 108.896 92.8892 108.896 93.1452Z" fill="#00D8FF"/>
<mask id="mask0_201_456" style="mask-type:luminance" maskUnits="userSpaceOnUse" x="5" y="19" width="176" height="149">
<path d="M5.77322 19.0303H180.764V167.655H5.77322V19.0303Z" fill="white"/>
</mask>
<g mask="url(#mask0_201_456)">
<path d="M93.27 61.3652C114.25 61.3652 133.741 64.3764 148.437 69.4368C166.143 75.5339 177.029 84.7753 177.029 93.1437C177.029 101.864 165.492 111.682 146.478 117.983C132.103 122.747 113.186 125.234 93.27 125.234C72.8511 125.234 53.5157 122.9 38.9783 117.931C20.5868 111.643 9.50894 101.698 9.50894 93.1437C9.50894 84.8433 19.9032 75.6729 37.3605 69.585C52.1107 64.4415 72.0816 61.3652 93.2685 61.3652H93.27Z" stroke="#00D8FF" stroke-width="7.47646"/>
</g>
<mask id="mask1_201_456" style="mask-type:luminance" maskUnits="userSpaceOnUse" x="5" y="11" width="176" height="165">
<path d="M5.77313 11.3428H180.764V175.234H5.77313V11.3428Z" fill="white"/>
</mask>
<g mask="url(#mask1_201_456)">
<path d="M65.6134 77.3429C76.0946 59.1647 88.439 43.7824 100.163 33.5761C114.289 21.2808 127.729 16.4653 134.978 20.6453C142.531 25.0017 145.27 39.904 141.228 59.5276C138.176 74.3628 130.877 91.9944 120.927 109.252C110.726 126.944 99.0451 142.532 87.48 152.642C72.8464 165.437 58.6986 170.067 51.2917 165.793C44.1024 161.649 41.3536 148.059 44.802 129.893C47.716 114.543 55.0287 95.7028 65.609 77.3463L65.6134 77.3429Z" stroke="#00D8FF" stroke-width="7.47646"/>
<path d="M65.6386 109.297C55.1292 91.1388 47.9715 72.7575 44.9841 57.5006C41.3885 39.1188 43.9308 25.0648 51.1716 20.8712C58.717 16.5021 72.9926 21.5703 87.9701 34.8722C99.2948 44.9293 110.923 60.0575 120.901 77.2966C131.131 94.972 138.798 112.879 141.781 127.949C145.555 147.02 142.5 161.591 135.099 165.878C127.917 170.036 114.774 165.634 100.761 153.572C88.9204 143.38 76.2525 127.634 65.6376 109.293L65.6386 109.297Z" stroke="#00D8FF" stroke-width="7.47646"/>
</g>
</svg>
